#tb 0: 1/30
#media_type 0: video
#codec_id 0: rawvideo
#dimensions 0: 720x480
#sar 0: 8/9
0,          0,          0,        1,   518400, 0xc1866f5f
0,          1,          1,        2,   518400, 0x9ba32764
0,          3,          3,        1,   518400, 0xa9031bb8
0,          4,          4,        1,   518400, 0x5e2c3502
0,          5,          5,        1,   518400, 0xe860027a
0,          6,          6,        2,   518400, 0xa9152430
0,          8,          8,        1,   518400, 0xb98dd9f7
